<svg xmlns="http://www.w3.org/2000/svg" id="homepageLogo" viewBox="0 0 1000 1000" style="max-width:100%;max-height:100%;fill:#FFF">
            <style>
              .st0{fill:#FFFFFF;} .st1{fill:#E91E33;} .st2{fill:#BF0F22;} .st3{fill:#6FBC23;} .st4{fill:#519A23;}
            </style>
            <circle cx="500" cy="500" r="487.6" class="st0"></circle>
            <path d="M811.7 278.2l-5.5 6.4c-21.7 23.4-51 37-83 38-1.4.2-3 .2-4.4.2-4 0-7.7-.2-11.5-.6 75.4 89 86.8 220 19.5 322.3-67 101.7-191 143.2-302 110h-.7c-45-11.8-96 6-123 47.7 28-42.7 24-97.4-7-135v-.4C221 578 211 449 277.7 348.2c73-111 214-150.2 331.8-99-5-13-8.2-27-9-41.3-1-26 6.5-51 20.8-72-158-52-338 5-434 151-115.5 175-67 410 107 525C468.7 927 703 878 818 704c88-133.7 80.5-302.5-6.2-426z" class="st1"></path>
            <path d="M397 189.2c-95.7 9.5-179.5 50.4-211 98.6C71 462.3 119.2 697 293.7 812l6.4-9.8c28-42.7 24-97.4-7-135v-.4C221 578 211 449 277 348.2c73-111 214-150.2 331.8-99 0 0-100-71-211.6-60z" class="st2"></path>
            <path d="M665.2 295.8s-3-36 13-62 50-51.5 93-48.8c43.2 2.7 50.2 12.7 50.2 12.7s1 35-11 55-37 49.4-73 56.8c-36 7.3-72.2-13.7-72.2-13.7z" class="st3"></path>
            <path d="M652.2 285.7s-4-35 20-70 50-40.2 50-40.2-3-48-26-71c2-.5-27.4.7-53 29-22.6 24.8-36 64-26 102s35 50.2 35 50.2z" class="st4"></path>
          </svg>